# xmcd
# 
# Track frame offsets:
#     150
#     99605
#     121471
#     137866
#     159588
#     179131
#     196269
#     212392
#     224602
# 
# Disc length: 3222
# 
# Revision: 5
# Processed by: cddbd v1.5.2PL0 Copyright (c) Steve Scherf et al.
# Submitted via: fre:ac v1.0.31
# 
DISCID=8b0c9409
DTITLE=Paddy McAloon - i trawl the MEGAHERTZ
DYEAR=2003
DGENRE=Alternative
TTITLE0=i trawl the MEGAHERTZ
TTITLE1=esprit de corps
TTITLE2=fall from grace
TTITLE3=we were poor...
TTITLE4=orchid 7
TTITLE5=i'm 49
TTITLE6=sleeping rough
TTITLE7=ineffable
TTITLE8=but we were happy
EXTD=
EXTT0=
EXTT1=
EXTT2=
EXTT3=
EXTT4=
EXTT5=
EXTT6=
EXTT7=
EXTT8=
PLAYORDER=
